<?xml version="1.0" encoding="UTF-8"?>
<!DOCTYPE svg PUBLIC "-//W3C//DTD SVG 1.0//EN" "http://www.w3.org/TR/2001/REC-SVG-20010904/DTD/svg10.dtd">
<!-- Creator: CorelDRAW 2017 -->
<svg xmlns="http://www.w3.org/2000/svg" xml:space="preserve" width="152px" height="152px" version="1.0" style="shape-rendering:geometricPrecision; text-rendering:geometricPrecision; image-rendering:optimizeQuality; fill-rule:evenodd; clip-rule:evenodd"
viewBox="0 0 36.27 36.27"
 xmlns:xlink="http://www.w3.org/1999/xlink">
 <defs>
  <style type="text/css">
   <![CDATA[
    .fil1 {fill:#B2B3B3}
    .fil8 {fill:#082137}
    .fil4 {fill:#09263F}
    .fil6 {fill:#0C3253}
    .fil5 {fill:#0E3B62}
    .fil9 {fill:#0F416B}
    .fil7 {fill:#135084}
    .fil2 {fill:#165F9C}
    .fil3 {fill:#17609F}
    .fil0 {fill:#FEFEFE;fill-opacity:0.858824}
   ]]>
  </style>
 </defs>
 <g id="Layer_x0020_1">
  <metadata id="CorelCorpID_0Corel-Layer"/>
  <path class="fil0" d="M4.484 0l27.302 0c2.466,0 4.484,2.018 4.484,4.484l0 27.302c0,2.466 -2.018,4.484 -4.484,4.484l-27.302 0c-2.466,0 -4.484,-2.018 -4.484,-4.484l0 -27.302c0,-2.466 2.018,-4.484 4.484,-4.484z"/>
  <g id="_2763237611504">
   <path class="fil1" d="M31.4 21.966c0.061,-0.76 0.206,-1.378 0.618,-2.017 0.506,-0.785 0.914,-0.653 1.662,-1.032l0 -1.899c-4.509,-0.628 -0.642,-9.322 -3.41,-11.941 -0.936,-0.886 -3.255,-1.457 -4.547,-1.232l0 1.846c2.058,0.475 2.718,0.355 2.718,2.965 0.001,1.879 -0.248,5.859 0.55,7.467 0.649,1.307 1.132,1.156 1.814,1.874 -0.969,0.962 -1.436,0.791 -2.008,2.4 -0.444,1.254 -0.356,2.639 -0.356,3.983 0,4.94 0.416,5.37 -2.71,5.913l0 1.894c1.159,0.123 3.29,-0.259 4.202,-1.011 2.223,-1.83 1.174,-5.562 1.467,-9.21z"/>
   <path class="fil1" d="M5.272 18.104c0.353,-0.419 0.912,-0.638 1.249,-1.065 1.316,-1.664 1.145,-3.196 1.144,-5.308 0,-3.907 -0.601,-5.781 2.711,-5.952l0 -1.965c-3.72,0.142 -5.609,0.989 -5.636,5.001 -0.021,3.249 0.787,7.888 -2.32,8.219l0 1.799c0.368,0.436 1.11,0.379 1.646,1.081 0.389,0.51 0.586,1.411 0.643,2.046 0.531,5.845 -1.857,10 5.67,10.299l-0.058 -1.965c-3.292,-0.181 -2.656,-2.179 -2.656,-6.008 0.001,-2.503 0.095,-4.951 -2.393,-6.182z"/>
  </g>
  <g id="_2763237612560">
   <polygon class="fil2" points="16.496,12.198 24.743,12.174 24.742,8.699 16.496,8.698 "/>
   <polygon class="fil3" points="16.511,28.027 24.743,28.011 24.743,24.528 16.511,24.525 "/>
   <polygon class="fil3" points="16.511,19.808 24.743,19.784 24.743,16.309 16.511,16.306 "/>
   <polygon class="fil4" points="13.849,12.199 13.849,8.697 12.301,8.69 12.301,12.207 "/>
   <polygon class="fil4" points="13.849,19.808 13.849,16.306 12.301,16.299 12.301,19.816 "/>
   <polygon class="fil5" points="13.849,12.199 15.354,12.198 15.354,8.699 13.849,8.697 "/>
   <polygon class="fil5" points="13.849,19.808 15.354,19.807 15.354,16.307 13.849,16.306 "/>
   <polygon class="fil6" points="13.256,28.029 14.568,28.025 14.568,24.527 13.256,24.524 "/>
   <polygon class="fil7" points="15.354,19.807 16.511,19.808 16.511,16.306 15.354,16.307 "/>
   <polygon class="fil7" points="15.354,12.198 16.496,12.198 16.496,8.698 15.354,8.699 "/>
   <polygon class="fil7" points="15.393,28.028 16.511,28.027 16.511,24.525 15.393,24.525 "/>
   <polygon class="fil8" points="13.256,28.029 13.256,24.524 12.305,24.521 12.305,28.03 "/>
   <polygon class="fil9" points="14.568,28.025 15.393,28.028 15.393,24.525 14.568,24.527 "/>
  </g>
 </g>
</svg>
